<svg xmlns="http://www.w3.org/2000/svg" viewBox="0 0 600.25 111.83"><defs><style>.cls-1{fill:#fff;stroke:#231f20;stroke-miterlimit:10;stroke-width:0.25px;}</style></defs><g id="Layer_2" data-name="Layer 2"><g id="Logo"><path class="cls-1" d="M132.94,56.32h-4.67V53.5h4.67ZM16.19,64.46H5.46v-40H23.3V21.37H5.46V6.12H22l2.45,3H16.19v2.15h10L47.87,38.48H35.29v2.59H50l17,21.17L94.59,27.67H110.5V25.59H96.22L111.76,6.12h16.51v7.11h-15v2.3h15v38h-15v2.82h15V111.4H110.73v-6.89h4.36V101.7h-4.36V89.48h12.8v-5h-12.8v-49l-23.92,30H73.05v3h11.4L66.9,90.37l-6.59-8.29H70.75V80.3H58.83L41.58,58.76h7.7V56.32H39.66L23,35.51V45.88H14.41v1.78H23V90.74H14.41v3.11H23V111.4H5.46V77.27h6.73V75.42H5.46V67H16.19ZM27.89,101V99.4H39.66V101ZM8,105.92h6.44v-1.63H8ZM.13,64.46H5.46V67H.13Z"/><path class="cls-1" d="M340.33,45h-9V42.39h9ZM270.74,76.69h9v-2H272.3l4.13-5.27A35.9,35.9,0,0,1,253.37,36a34.34,34.34,0,0,1,10.54-25.33A34.38,34.38,0,0,1,289.24.12h6.47V3H322.9V.13h8.46V42.39h-7.18V45h7.18V82.1h-9.67v2.35h9.67v16.86H314.5V91.42h8.4V88.93h-8.4V71.78H296L281.55,90.14H264.62v3.2h14.44l-6.26,8H251.38ZM314.5,29.16h8.4V26.45h-8.4V17H289.24a18.31,18.31,0,0,0-13.45,5.55,18.4,18.4,0,0,0-4.84,8h-6.33v1.78h6A19,19,0,0,0,272.52,45h-7.9v3h10a15.66,15.66,0,0,0,1.21,1.36,18.31,18.31,0,0,0,13.45,5.55H314.5Zm-3.56,37.71v-2.2H292.51v2.2ZM270.59,32.36c.1-.62.22-1.21.36-1.78h7.54v1.78ZM263.12,74.7h9.18l-1.56,2h-7.62Z"/><path class="cls-1" d="M400.26,56.11l6.8-2.81V67.89L354.55,89.75V75.16l12.54-5.22v11.9h3.22V68.6l8.91-3.7V70h2.34l-.05-6.09,17.23-7.15v6.68h1.52ZM422.83,70V61.33L426.05,60V70ZM407.06,41.7,389.3,34.25V19.66L430.86,37v8.67h2.46V38l4.57,1.94V55.06L426.05,60V54.59h-3.22v6.74l-13,5.39V52.13L421,47.5l-11.14-4.63V37h-2.81Zm-6.8,11.6v2.81l-1.52.65V53.3ZM433.32,20V38l-2.46-1V20ZM354.55,5.18,386.9,18.66v14.6l-19.23-8V17.14h-1.46v7.5l-11.66-4.86Z"/><path class="cls-1" d="M190.88,64.51h1.63V57.39L210.89,65l-.07,6.5h2.5V66.08l9.5,3.93V84.14h3.44V71.45L239.64,77V92.58l-56-23.32V53.7l7.25,3ZM180.63,80.14V68l3,1.25V80.14Zm3-43.81h-3v6.25l-11.87,4.93,11.87,4.94V68l-13.81-5.75V55.08h-3.44v5.75l-12.62-5.25V39.45l4.87-2.06v8.19h2.63V36.33l44.31-18.51V33.39l-18.94,7.94Zm32.44,11.18h1.75V36.83h-1.75ZM239.64,18,227.2,23.14v-8h-1.56v8.62l-20.5,8.56V16.76l34.5-14.37ZM202.57,7.45h2.57v9.31l-2.57,1.06Z"/><path class="cls-1" d="M470.29,16.87,474,18l-.86,2.91-3.69-1.09Zm-19.6,71.87,2.2.65-.71,2.41-2.2-.65Zm10.41-6.5,11.22,3.31-6,20.38-12.85-3.8-.38,1.28,12.86,3.8-1.33,4.47-16.82-5,4.4-14.91,10.22,3,.72-2.42-10.23-3,13.59-46,13.77,4.07,1.22-4.12L467.7,39.26l5.43-18.39,10.22,3,.86-2.91L474,18l3.6-12.21,4.55,1.34-.53,1.78,12.29,3.62-5.83,19.74-11.51-3.4L476,30.68l10.37,3.06L479.51,57l-10.08-3-.59,2,11.22,3.31L472.7,84.27,461.48,81Zm2.58-16.84L463,67.6l7.1,2.1.65-2.2Zm17.66-5.67-1.28-.38.58-2,1.28.38Z"/><path class="cls-1" d="M600.12,19.6h-3.77v-3h3.78ZM596.35,6.12V16.56H572.29l7.62-10.44ZM526.09,80l22.29-30.58H567V45.88H551l19.1-26.28h26.28V49.43H582.58V53.5h13.77V83.93H578.8V37.51L525,111.4H508.55V101h17.17v-3H508.55V57.58h17.54ZM578.8,111.4v-7.11h9.33V99.4H578.8V86.23h17.55V111.4ZM538.31,16.56h18.06l-2.22,3H538.31Zm6,83.14H551l-2.59,3.56h-4.07ZM526.09,6.12V21.37H516v3.11h10.06V55.06H508.55V6.12Zm-21.54,91.8h4v3h-4Z"/></g></g></svg>