<svg xmlns="http://www.w3.org/2000/svg" viewBox="0 0 1715.99 606.1"><defs><style>.cls-1{fill:#ed2024;}.cls-2{fill:#35c6f4;}</style></defs><g id="Layer_2" data-name="Layer 2"><g id="Logo"><path class="cls-1" d="M234,20.84v8.93h23.81v24.5H248.9v-7.1h-73v7.1H155.94V159.6H121.59v7.1h34.35v59.76h-27v7.79h27v91.36H101.67V296.76H150v-7.33H101.67V114.49h38.24V104.42H101.67V54.27H0v-7.1H62.28V41.9H0V0H257.83V20.84Zm-94.11,0V14H36v6.87Z"/><path class="cls-1" d="M737.07,54.27H547V88.39H520.45v8.24H547v39.16H655.78v11.9H626v8h29.76v34.35H640.21V179.75H575.64v10.31H547v81.28H737.07v54.27H714v-8.7H640.21v8.7H492.75V294.24h82.89v-7.1H492.75V39.39h36.41V31.6H492.75V0H737.07ZM604,22v6.41H682.8V22Z"/><path class="cls-1" d="M1019.53,162.81a107.8,107.8,0,0,0,4.12,30.22H968a161.35,161.35,0,0,1-2.75-30.22q0-67.54,47.63-115.18T1128.3,0q67.32,0,115,47.63L1205,86.1q-31.83-31.83-76.71-31.83-33.66,0-59.77,17.4h-46.94v6h38.93a118.86,118.86,0,0,0-9.39,8.47q-19,19.23-26.56,43.28H996.4v6.18h26.34A113.67,113.67,0,0,0,1019.53,162.81ZM1128.3,271.34q44.88,0,76.71-31.82L1243.25,278q-47.64,47.63-115,47.62-40.3,0-73.51-16.94h56.1v-5.95h-66.63A164.56,164.56,0,0,1,1012.89,278q-34.57-34.81-44-80.15H1025a107.78,107.78,0,0,0,26.1,41.68Q1083,271.35,1128.3,271.34Zm-5.73-254.85v8.7h33.21v-8.7Z"/><path class="cls-1" d="M1450.83,253.94h7.33v8.7h-7.33ZM1661.72,66.4H1716V294h-39.38v8.71H1716v22.89h-54.27V258.29h20.38V245.93h-20.38V190.06H1512.43v63.88h-54.27V169.45h45.34v-12.6h-45.34V36.18h45.34V28.39h-45.34V0h54.27V63.66h-21.07V75.34h21.07v60.45h149.29V108.08h26.79v-8.7h-26.79ZM1458.16,325.61v-63h54.27v63ZM1634.7,56.79h27V66.4h-27ZM1716,0V56.79h-54.27V32.29h14.89v-8h-14.89V0Z"/><path class="cls-2" d="M85.94,555.2h21.85v39.7h-25v2.49h25v8.71H75V577.05H94.93v-4.7H75V482.72h26.83v-8H75V438.88H94.93v-5.67H75V409.42h8.85v3.46h23.93v38.45H85.38v3.59h20.2v45.37H85.94v3.87h21.85v48.55H85.94Zm-4.29-31.54V528H95.48v-4.29Zm26.14-110.78v-3.46H83.86V406.1h30.43v6.78Z"/><path class="cls-2" d="M339.05,559.07H324.94v-4.29h14.11ZM332,434.59h-7.05v-5.67H332Zm-7.05-25.17v19.5H280l14.25-19.5Zm-131.26,138,41.63-57.12h34.86v-6.64h-30l35.68-49.1h49.1v55.74H299.21v7.61h25.73v56.84H292.16V468.06l-100.55,138H160.9V586.6H193v-5.67H160.9V505.55h32.78Zm98.48,58.65V592.82h17.43v-9.13H292.16V559.07h32.78v47ZM203.92,505.55H193.68v-4.71h10.24Zm-10.24-96.13v28.49H174.87v5.81h18.81v57.12H160.9V409.42Z"/><path class="cls-1" d="M593,439.43H476.24v21H459.93v5.06h16.31V489.5h66.81v7.32H524.77v4.92h18.28v21.1h-9.56v-6.33H493.82v6.33H476.24v49.93H593V606.1h-14.2v-5.35H533.49v5.35H442.91V586.83h50.91v-4.36H442.91V430.29h22.36v-4.78H442.91V406.1H593ZM511.26,419.6v3.94h48.39V419.6Z"/><path class="cls-1" d="M815.06,558.28H800.72v-4.36h14.34ZM807.89,431.7h-7.17v-5.77h7.17Zm-7.17-25.6v19.83H755l14.48-19.83ZM667.24,546.46l42.34-58.08H745v-6.75H714.5l36.29-49.93h49.93v56.68H774.56v7.73h26.16v57.81H767.38V465.73L665.13,606.1H633.91V586.27h32.63V580.5H633.91V503.85h33.33ZM767.38,606.1V592.6H785.1v-9.29H767.38v-25h33.34V606.1ZM677.65,503.85H667.24v-4.78h10.41ZM667.24,406.1v29H648.11V441h19.13v58.09H633.91v-93Z"/><path class="cls-1" d="M1017.17,439.43H900.43v21H884.12v5.06h16.31V489.5h66.81v7.32H949v4.92h18.28v21.1h-9.56v-6.33H918v6.33H900.43v49.93h116.74V606.1H1003v-5.35H957.68v5.35H867.1V586.83H918v-4.36H867.1V430.29h22.36v-4.78H867.1V406.1h150.07ZM935.46,419.6v3.94h48.38V419.6Z"/><path class="cls-1" d="M1086.79,557.43h17.86V553.5h-14.76l8.15-10.41A70.94,70.94,0,0,1,1052.47,477q0-29.39,20.82-50.07t50.07-20.81h12.8v5.62h53.73V406.1h16.73v83.54h-14.2v5.21h14.2v73.27H1187.5v4.65h19.12V606.1h-33.33V586.55h16.6v-4.92h-16.6v-33.9h-36.57L1108.17,584H1074.7v6.33h28.55l-12.38,15.75h-42.33Zm86.5-93.95h16.6v-5.34h-16.6V439.43h-49.93a37.84,37.84,0,0,0-36.15,26.87H1074.7v3.51h11.81a35,35,0,0,0-.7,7.17,35.89,35.89,0,0,0,4.5,17.87H1074.7v5.9h19.69a32,32,0,0,0,2.39,2.68,36.2,36.2,0,0,0,26.58,11h49.93Zm-7,74.55v-4.36h-36.43V538Z"/><path class="cls-1" d="M1404.37,430.29v3.8h31.51a.12.12,0,0,0,.14.14,15.84,15.84,0,0,1,1.12,1.26L1413.66,459a64.47,64.47,0,0,0-47.12-19.41q-27.7,0-47.26,19.41a67.41,67.41,0,0,0-10,81.72h-22.51v8.44h28.69q1.83,2.1,3.8,4.22a66.78,66.78,0,0,0,89.45,4.36V536.2h23.35v-4.5h-23.35v-8.86h-38v-20.4h38v-5.62h-38V489.5h71.31v82.42l-4.93,4.92A102.46,102.46,0,0,1,1418,592h-51.76v5.21h42.19a98.43,98.43,0,0,1-41.91,8.86q-41.49,0-70.75-29.26t-29.25-70.74q0-26.87,12.38-48.67h33V447.17h-26.44a119.63,119.63,0,0,1,10.26-11.68q29.25-29.25,70.75-29.25,37.55,0,65.12,24.05Z"/><path class="cls-1" d="M1581.59,514.54v3.23h20.67l-11.11,18V567.7h-33.33V535.78l-30.52-50.07h24v-3.52h-26.16l-46.56-76.09h39.1l14.49,23.77h-17v6.47h21l38.4,62.87,21.09-34.46h21.94v-4.5h-19.27l30.53-50.07h24.89V406.1h16.74l-66.25,108.44Zm-30.24,53.16h6.47v5.91h-6.47Zm6.47,20.54V573.61h33.33V606.1h-33.33V592.88h23.77v-4.64Z"/></g></g></svg>